<svg width="34" height="34" viewBox="0 0 34 34" fill="none" xmlns="http://www.w3.org/2000/svg">
<g clip-path="url(#clip0)">
<path d="M24.0618 0.361328H10.0034C4.62967 0.361328 0.257812 4.73318 0.257812 10.1069V24.1652C0.257812 29.539 4.62967 33.9108 10.0034 33.9108H24.0617C29.4355 33.9108 33.8073 29.539 33.8073 24.1653V10.1069C33.8073 4.73318 29.4355 0.361328 24.0618 0.361328ZM31.1863 24.1652C31.1863 28.0937 27.9902 31.2898 24.0618 31.2898H10.0034C6.07492 31.2898 2.87887 28.0937 2.87887 24.1653V10.1069C2.87887 6.17843 6.07492 2.98238 10.0034 2.98238H24.0617C27.9902 2.98238 31.1863 6.17843 31.1863 10.1069V24.1652Z" fill="white"/>
<path d="M17.0329 8.09351C12.0467 8.09351 7.99023 12.15 7.99023 17.1361C7.99023 22.1223 12.0467 26.1788 17.0329 26.1788C22.019 26.1788 26.0755 22.1223 26.0755 17.1361C26.0755 12.15 22.019 8.09351 17.0329 8.09351ZM17.0329 23.5577C13.492 23.5577 10.6113 20.677 10.6113 17.1361C10.6113 13.5953 13.492 10.7146 17.0329 10.7146C20.5737 10.7146 23.4545 13.5953 23.4545 17.1361C23.4545 20.677 20.5737 23.5577 17.0329 23.5577Z" fill="white"/>
<path d="M26.206 9.27291C26.9298 9.27291 27.5166 8.68617 27.5166 7.96238C27.5166 7.2386 26.9298 6.65186 26.206 6.65186C25.4823 6.65186 24.8955 7.2386 24.8955 7.96238C24.8955 8.68617 25.4823 9.27291 26.206 9.27291Z" fill="white"/>
</g>
<defs>
<clipPath id="clip0">
<rect width="33.5495" height="33.5495" fill="white" transform="translate(0.257812 0.361328)"/>
</clipPath>
</defs>
</svg>
