<svg width="215" height="99" viewBox="0 0 215 99" fill="none" xmlns="http://www.w3.org/2000/svg">
<path d="M48.6134 30L39.3974 4.8H44.3294L51.4574 25.284L58.6214 4.8H63.4814L54.2654 30H48.6134ZM68.8533 9.372C68.0133 9.372 67.3173 9.12 66.7653 8.616C66.2373 8.112 65.9733 7.476 65.9733 6.708C65.9733 5.94 66.2373 5.316 66.7653 4.836C67.3173 4.332 68.0133 4.08 68.8533 4.08C69.6933 4.08 70.3773 4.332 70.9053 4.836C71.4573 5.316 71.7333 5.94 71.7333 6.708C71.7333 7.476 71.4573 8.112 70.9053 8.616C70.3773 9.12 69.6933 9.372 68.8533 9.372ZM66.5493 30V12.144H71.1573V30H66.5493ZM84.7149 30.432C82.8909 30.432 81.2829 30.036 79.8909 29.244C78.4989 28.452 77.3949 27.348 76.5789 25.932C75.7869 24.516 75.3909 22.896 75.3909 21.072C75.3909 19.248 75.7869 17.628 76.5789 16.212C77.3949 14.796 78.4989 13.692 79.8909 12.9C81.2829 12.108 82.8909 11.712 84.7149 11.712C86.9949 11.712 88.9149 12.312 90.4749 13.512C92.035 14.688 93.031 16.32 93.4629 18.408H88.6029C88.3629 17.544 87.8829 16.872 87.1629 16.392C86.4669 15.888 85.6389 15.636 84.6789 15.636C83.4069 15.636 82.3269 16.116 81.4389 17.076C80.5509 18.036 80.1069 19.368 80.1069 21.072C80.1069 22.776 80.5509 24.108 81.4389 25.068C82.3269 26.028 83.4069 26.508 84.6789 26.508C85.6389 26.508 86.4669 26.268 87.1629 25.788C87.8829 25.308 88.3629 24.624 88.6029 23.736H93.4629C93.031 25.752 92.035 27.372 90.4749 28.596C88.9149 29.82 86.9949 30.432 84.7149 30.432ZM105.263 30C103.391 30 101.891 29.544 100.763 28.632C99.6348 27.72 99.0708 26.1 99.0708 23.772V15.996H96.0108V12.144H99.0708L99.6108 7.356H103.679V12.144H108.503V15.996H103.679V23.808C103.679 24.672 103.859 25.272 104.219 25.608C104.603 25.92 105.251 26.076 106.163 26.076H108.395V30H105.263ZM120.57 30.432C118.842 30.432 117.282 30.036 115.89 29.244C114.522 28.452 113.43 27.36 112.614 25.968C111.822 24.552 111.426 22.92 111.426 21.072C111.426 19.224 111.834 17.604 112.65 16.212C113.466 14.796 114.558 13.692 115.926 12.9C117.318 12.108 118.878 11.712 120.606 11.712C122.31 11.712 123.846 12.108 125.214 12.9C126.606 13.692 127.698 14.796 128.49 16.212C129.306 17.604 129.714 19.224 129.714 21.072C129.714 22.92 129.306 24.552 128.49 25.968C127.698 27.36 126.606 28.452 125.214 29.244C123.822 30.036 122.274 30.432 120.57 30.432ZM120.57 26.436C121.77 26.436 122.814 25.992 123.702 25.104C124.59 24.192 125.034 22.848 125.034 21.072C125.034 19.296 124.59 17.964 123.702 17.076C122.814 16.164 121.782 15.708 120.606 15.708C119.382 15.708 118.326 16.164 117.438 17.076C116.574 17.964 116.142 19.296 116.142 21.072C116.142 22.848 116.574 24.192 117.438 25.104C118.326 25.992 119.37 26.436 120.57 26.436ZM133.834 30V12.144H137.938L138.37 15.492C139.018 14.34 139.894 13.428 140.998 12.756C142.126 12.06 143.446 11.712 144.958 11.712V16.572H143.662C142.654 16.572 141.754 16.728 140.962 17.04C140.17 17.352 139.546 17.892 139.09 18.66C138.658 19.428 138.442 20.496 138.442 21.864V30H133.834ZM150.592 9.372C149.752 9.372 149.056 9.12 148.504 8.616C147.976 8.112 147.712 7.476 147.712 6.708C147.712 5.94 147.976 5.316 148.504 4.836C149.056 4.332 149.752 4.08 150.592 4.08C151.432 4.08 152.116 4.332 152.644 4.836C153.196 5.316 153.472 5.94 153.472 6.708C153.472 7.476 153.196 8.112 152.644 8.616C152.116 9.12 151.432 9.372 150.592 9.372ZM148.288 30V12.144H152.896V30H148.288ZM163.861 30.432C162.325 30.432 161.065 30.192 160.081 29.712C159.097 29.208 158.365 28.548 157.885 27.732C157.405 26.916 157.165 26.016 157.165 25.032C157.165 23.376 157.813 22.032 159.109 21C160.405 19.968 162.349 19.452 164.941 19.452H169.477V19.02C169.477 17.796 169.129 16.896 168.433 16.32C167.737 15.744 166.873 15.456 165.841 15.456C164.905 15.456 164.089 15.684 163.393 16.14C162.697 16.572 162.265 17.22 162.097 18.084H157.597C157.717 16.788 158.149 15.66 158.893 14.7C159.661 13.74 160.645 13.008 161.845 12.504C163.045 11.976 164.389 11.712 165.877 11.712C168.421 11.712 170.425 12.348 171.889 13.62C173.353 14.892 174.085 16.692 174.085 19.02V30H170.161L169.729 27.12C169.201 28.08 168.457 28.872 167.497 29.496C166.561 30.12 165.349 30.432 163.861 30.432ZM164.905 26.832C166.225 26.832 167.245 26.4 167.965 25.536C168.709 24.672 169.177 23.604 169.369 22.332H165.445C164.221 22.332 163.345 22.56 162.817 23.016C162.289 23.448 162.025 23.988 162.025 24.636C162.025 25.332 162.289 25.872 162.817 26.256C163.345 26.64 164.041 26.832 164.905 26.832ZM22.088 77.432C19.568 77.432 17.36 76.88 15.464 75.776C13.592 74.672 12.116 73.148 11.036 71.204C9.98002 69.236 9.45202 66.968 9.45202 64.4C9.45202 61.832 9.98002 59.576 11.036 57.632C12.116 55.664 13.592 54.128 15.464 53.024C17.36 51.92 19.568 51.368 22.088 51.368C24.584 51.368 26.78 51.92 28.676 53.024C30.572 54.128 32.048 55.664 33.104 57.632C34.16 59.576 34.688 61.832 34.688 64.4C34.688 66.968 34.16 69.236 33.104 71.204C32.048 73.148 30.572 74.672 28.676 75.776C26.78 76.88 24.584 77.432 22.088 77.432ZM22.088 73.292C24.488 73.292 26.396 72.5 27.812 70.916C29.252 69.332 29.972 67.16 29.972 64.4C29.972 61.64 29.252 59.468 27.812 57.884C26.396 56.3 24.488 55.508 22.088 55.508C19.688 55.508 17.768 56.3 16.328 57.884C14.888 59.468 14.168 61.64 14.168 64.4C14.168 67.16 14.888 69.332 16.328 70.916C17.768 72.5 19.688 73.292 22.088 73.292ZM38.6486 77V51.08H43.2566V77H38.6486ZM54.121 77.432C52.585 77.432 51.325 77.192 50.341 76.712C49.357 76.208 48.625 75.548 48.145 74.732C47.665 73.916 47.425 73.016 47.425 72.032C47.425 70.376 48.073 69.032 49.369 68C50.665 66.968 52.609 66.452 55.201 66.452H59.737V66.02C59.737 64.796 59.389 63.896 58.693 63.32C57.997 62.744 57.133 62.456 56.101 62.456C55.165 62.456 54.349 62.684 53.653 63.14C52.957 63.572 52.525 64.22 52.357 65.084H47.857C47.977 63.788 48.409 62.66 49.153 61.7C49.921 60.74 50.905 60.008 52.105 59.504C53.305 58.976 54.649 58.712 56.137 58.712C58.681 58.712 60.685 59.348 62.149 60.62C63.613 61.892 64.345 63.692 64.345 66.02V77H60.421L59.989 74.12C59.461 75.08 58.717 75.872 57.757 76.496C56.821 77.12 55.609 77.432 54.121 77.432ZM55.165 73.832C56.485 73.832 57.505 73.4 58.225 72.536C58.969 71.672 59.437 70.604 59.629 69.332H55.705C54.481 69.332 53.605 69.56 53.077 70.016C52.549 70.448 52.285 70.988 52.285 71.636C52.285 72.332 52.549 72.872 53.077 73.256C53.605 73.64 54.301 73.832 55.165 73.832ZM68.7423 77V59.144H72.8103L73.1703 62.168C73.7223 61.112 74.5143 60.272 75.5463 59.648C76.6023 59.024 77.8383 58.712 79.2543 58.712C81.4623 58.712 83.1783 59.408 84.4023 60.8C85.6263 62.192 86.2383 64.232 86.2383 66.92V77H81.6303V67.352C81.6303 65.816 81.3183 64.64 80.6943 63.824C80.0703 63.008 79.0983 62.6 77.7783 62.6C76.4823 62.6 75.4143 63.056 74.5743 63.968C73.7583 64.88 73.3503 66.152 73.3503 67.784V77H68.7423ZM93.1287 56.372C92.2887 56.372 91.5927 56.12 91.0407 55.616C90.5127 55.112 90.2487 54.476 90.2487 53.708C90.2487 52.94 90.5127 52.316 91.0407 51.836C91.5927 51.332 92.2887 51.08 93.1287 51.08C93.9687 51.08 94.6527 51.332 95.1807 51.836C95.7327 52.316 96.0087 52.94 96.0087 53.708C96.0087 54.476 95.7327 55.112 95.1807 55.616C94.6527 56.12 93.9687 56.372 93.1287 56.372ZM90.8247 77V59.144H95.4327V77H90.8247ZM100.242 84.92V59.144H104.346L104.85 61.7C105.426 60.908 106.182 60.212 107.118 59.612C108.078 59.012 109.314 58.712 110.826 58.712C112.506 58.712 114.006 59.12 115.326 59.936C116.646 60.752 117.69 61.868 118.458 63.284C119.226 64.7 119.61 66.308 119.61 68.108C119.61 69.908 119.226 71.516 118.458 72.932C117.69 74.324 116.646 75.428 115.326 76.244C114.006 77.036 112.506 77.432 110.826 77.432C109.482 77.432 108.306 77.18 107.298 76.676C106.29 76.172 105.474 75.464 104.85 74.552V84.92H100.242ZM109.854 73.4C111.318 73.4 112.53 72.908 113.49 71.924C114.45 70.94 114.93 69.668 114.93 68.108C114.93 66.548 114.45 65.264 113.49 64.256C112.53 63.248 111.318 62.744 109.854 62.744C108.366 62.744 107.142 63.248 106.182 64.256C105.246 65.24 104.778 66.512 104.778 68.072C104.778 69.632 105.246 70.916 106.182 71.924C107.142 72.908 108.366 73.4 109.854 73.4ZM132.403 77.432C130.603 77.432 129.007 77.048 127.615 76.28C126.223 75.512 125.131 74.432 124.339 73.04C123.547 71.648 123.151 70.04 123.151 68.216C123.151 66.368 123.535 64.724 124.303 63.284C125.095 61.844 126.175 60.728 127.543 59.936C128.935 59.12 130.567 58.712 132.439 58.712C134.191 58.712 135.739 59.096 137.083 59.864C138.427 60.632 139.471 61.688 140.215 63.032C140.983 64.352 141.367 65.828 141.367 67.46C141.367 67.724 141.355 68 141.331 68.288C141.331 68.576 141.319 68.876 141.295 69.188H127.723C127.819 70.58 128.299 71.672 129.163 72.464C130.051 73.256 131.119 73.652 132.367 73.652C133.303 73.652 134.083 73.448 134.707 73.04C135.355 72.608 135.835 72.056 136.147 71.384H140.827C140.491 72.512 139.927 73.544 139.135 74.48C138.367 75.392 137.407 76.112 136.255 76.64C135.127 77.168 133.843 77.432 132.403 77.432ZM132.439 62.456C131.311 62.456 130.315 62.78 129.451 63.428C128.587 64.052 128.035 65.012 127.795 66.308H136.687C136.615 65.132 136.183 64.196 135.391 63.5C134.599 62.804 133.615 62.456 132.439 62.456ZM145.242 77V51.08H149.85V66.38L156.186 59.144H161.658L154.35 67.28L162.846 77H157.086L149.85 68.036V77H145.242ZM172.399 77.432C170.167 77.432 168.439 76.736 167.215 75.344C166.015 73.952 165.415 71.912 165.415 69.224V59.144H169.987V68.792C169.987 70.328 170.299 71.504 170.923 72.32C171.547 73.136 172.531 73.544 173.875 73.544C175.147 73.544 176.191 73.088 177.007 72.176C177.847 71.264 178.267 69.992 178.267 68.36V59.144H182.875V77H178.807L178.447 73.976C177.895 75.032 177.091 75.872 176.035 76.496C175.003 77.12 173.791 77.432 172.399 77.432ZM187.606 77V59.144H191.674L192.034 62.168C192.586 61.112 193.378 60.272 194.41 59.648C195.466 59.024 196.702 58.712 198.118 58.712C200.326 58.712 202.042 59.408 203.266 60.8C204.49 62.192 205.102 64.232 205.102 66.92V77H200.494V67.352C200.494 65.816 200.182 64.64 199.558 63.824C198.934 63.008 197.962 62.6 196.642 62.6C195.346 62.6 194.278 63.056 193.438 63.968C192.622 64.88 192.214 66.152 192.214 67.784V77H187.606Z" fill="white"/>
<line x1="9.98995" y1="97" x2="208.99" y2="96" stroke="#FFFF00" stroke-width="4"/>
</svg>
