<svg width="314" height="38" viewBox="0 0 314 38" fill="none" xmlns="http://www.w3.org/2000/svg">
<g clip-path="url(#clip0)">
<path d="M255.664 2.20682C254.433 0.976569 252.952 0.361328 251.219 0.361328H230.25C228.518 0.361328 227.036 0.976569 225.805 2.20682C224.575 3.4373 223.96 4.9191 223.96 6.65182V27.6205C223.96 29.3533 224.575 30.8349 225.805 32.0652C227.036 33.2957 228.518 33.9109 230.25 33.9109H235.143C235.463 33.9109 235.704 33.8999 235.864 33.8785C236.024 33.8564 236.184 33.7617 236.344 33.5941C236.504 33.4268 236.584 33.1828 236.584 32.8626C236.584 32.8191 236.581 32.3235 236.573 31.3771C236.566 30.4304 236.562 29.6806 236.562 29.1271L236.06 29.2146C235.74 29.2727 235.335 29.2984 234.848 29.291C234.36 29.2837 233.854 29.2329 233.33 29.1382C232.805 29.0434 232.318 28.825 231.866 28.4831C231.415 28.1406 231.095 27.693 230.905 27.1398L230.687 26.6371C230.541 26.3026 230.312 25.9311 229.999 25.5237C229.686 25.1158 229.369 24.8391 229.049 24.6935L228.896 24.5842C228.794 24.5115 228.699 24.4237 228.612 24.3219C228.525 24.2198 228.459 24.1177 228.416 24.0161C228.372 23.914 228.408 23.8302 228.525 23.7645C228.641 23.6991 228.852 23.6666 229.158 23.6666L229.595 23.7321C229.886 23.7902 230.246 23.9648 230.676 24.2562C231.106 24.5473 231.459 24.9259 231.735 25.3917C232.07 25.9889 232.474 26.4436 232.948 26.7568C233.421 27.0702 233.898 27.2267 234.378 27.2267C234.859 27.2267 235.274 27.1903 235.623 27.1178C235.972 27.0448 236.3 26.9353 236.606 26.7897C236.737 25.8142 237.094 25.0639 237.676 24.5398C236.846 24.4523 236.1 24.3214 235.437 24.1465C234.775 23.9717 234.09 23.6879 233.384 23.2946C232.678 22.9014 232.092 22.4139 231.626 21.8311C231.16 21.2483 230.778 20.4839 230.479 19.5377C230.181 18.5909 230.032 17.4987 230.032 16.2611C230.032 14.4993 230.607 12.9992 231.757 11.7616C231.218 10.4366 231.269 8.95151 231.91 7.30593C232.332 7.1748 232.959 7.27318 233.789 7.60085C234.619 7.92874 235.226 8.20913 235.612 8.44177C235.998 8.6745 236.308 8.87126 236.541 9.03161C237.895 8.653 239.293 8.46373 240.735 8.46373C242.176 8.46373 243.574 8.653 244.929 9.03161L245.759 8.50741C246.327 8.15779 246.996 7.83747 247.768 7.54638C248.54 7.2552 249.13 7.17503 249.538 7.30616C250.193 8.95174 250.251 10.4368 249.712 11.7618C250.862 12.9995 251.438 14.4995 251.438 16.2613C251.438 17.4992 251.288 18.5951 250.99 19.5486C250.692 20.5024 250.306 21.2671 249.832 21.8423C249.359 22.4175 248.77 22.9013 248.063 23.2948C247.357 23.6878 246.673 23.972 246.01 24.1464C245.347 24.3213 244.601 24.4527 243.771 24.5402C244.528 25.1952 244.907 26.2287 244.907 27.6415V32.8619C244.907 33.1095 244.943 33.3096 245.016 33.4625C245.089 33.6154 245.205 33.7206 245.365 33.7793C245.526 33.8375 245.667 33.8738 245.791 33.8883C245.916 33.9029 246.094 33.9102 246.327 33.9102H251.219C252.952 33.9102 254.434 33.295 255.664 32.0645C256.894 30.834 257.509 29.3521 257.509 27.6195V6.65182C257.509 4.9191 256.894 3.43707 255.664 2.20682Z" fill="white"/>
</g>
<g clip-path="url(#clip1)">
<path d="M188.062 0.361328H174.003C168.63 0.361328 164.258 4.73318 164.258 10.1069V24.1652C164.258 29.539 168.63 33.9108 174.003 33.9108H188.062C193.435 33.9108 197.807 29.539 197.807 24.1653V10.1069C197.807 4.73318 193.435 0.361328 188.062 0.361328ZM195.186 24.1652C195.186 28.0937 191.99 31.2898 188.062 31.2898H174.003C170.075 31.2898 166.879 28.0937 166.879 24.1653V10.1069C166.879 6.17843 170.075 2.98238 174.003 2.98238H188.062C191.99 2.98238 195.186 6.17843 195.186 10.1069V24.1652Z" fill="white"/>
<path d="M181.033 8.09351C176.047 8.09351 171.99 12.15 171.99 17.1361C171.99 22.1223 176.047 26.1788 181.033 26.1788C186.019 26.1788 190.076 22.1223 190.076 17.1361C190.076 12.15 186.019 8.09351 181.033 8.09351ZM181.033 23.5577C177.492 23.5577 174.611 20.677 174.611 17.1361C174.611 13.5953 177.492 10.7146 181.033 10.7146C184.574 10.7146 187.454 13.5953 187.454 17.1361C187.454 20.677 184.574 23.5577 181.033 23.5577Z" fill="white"/>
<path d="M190.206 9.27291C190.93 9.27291 191.517 8.68617 191.517 7.96238C191.517 7.2386 190.93 6.65186 190.206 6.65186C189.482 6.65186 188.896 7.2386 188.896 7.96238C188.896 8.68617 189.482 9.27291 190.206 9.27291Z" fill="white"/>
</g>
<g clip-path="url(#clip2)">
<path d="M132.453 1.604H107.602C105.893 1.604 104.495 3.0019 104.495 4.71044V29.5619C104.495 31.2705 105.893 32.6684 107.602 32.6684H132.453C134.162 32.6684 135.559 31.2705 135.559 29.5619V4.71044C135.559 3.0019 134.162 1.604 132.453 1.604ZM113.814 28.0087H109.155V14.0297H113.814V28.0087ZM111.485 11.3893C109.931 11.3893 108.689 10.1467 108.689 8.59348C108.689 7.04027 109.931 5.79769 111.485 5.79769C113.038 5.79769 114.28 7.04027 114.28 8.59348C114.28 10.1467 113.038 11.3893 111.485 11.3893ZM130.9 28.0087H126.24V19.7767C126.24 18.5341 125.153 17.4468 123.91 17.4468C122.668 17.4468 121.581 18.5341 121.581 19.7767V28.0087H116.921V14.0297H121.581V15.8936C122.357 14.651 124.066 13.7191 125.464 13.7191C128.415 13.7191 130.9 16.2043 130.9 19.1554V28.0087Z" fill="white"/>
</g>
<g clip-path="url(#clip3)">
<path d="M34.7921 9.45472C33.4982 10.0223 32.1196 10.3985 30.6823 10.5811C32.1609 9.69826 33.2895 8.31093 33.8201 6.63873C32.4414 7.4607 30.9193 8.04129 29.2971 8.36529C27.9881 6.97143 26.1223 6.10815 24.087 6.10815C20.1381 6.10815 16.959 9.31337 16.959 13.2427C16.959 13.8081 17.0068 14.3517 17.1242 14.8692C11.1944 14.58 5.94727 11.7379 2.4224 7.40851C1.80701 8.47619 1.44605 9.69826 1.44605 11.0138C1.44605 13.4841 2.71813 15.6738 4.6143 16.9415C3.46834 16.9198 2.34412 16.5871 1.39168 16.063C1.39168 16.0848 1.39168 16.1131 1.39168 16.1413C1.39168 19.6075 3.8641 22.4865 7.10628 23.1497C6.52569 23.3085 5.89291 23.3846 5.23621 23.3846C4.77956 23.3846 4.31857 23.3585 3.88584 23.2628C4.81 26.0875 7.43246 28.1642 10.5507 28.2316C8.12395 30.1299 5.04268 31.2737 1.70699 31.2737C1.12204 31.2737 0.561022 31.2476 0 31.1758C3.15956 33.2134 6.90405 34.3767 10.9421 34.3767C24.0674 34.3767 31.2433 23.5042 31.2433 14.0799C31.2433 13.7646 31.2324 13.4602 31.2172 13.1579C32.6328 12.1533 33.8223 10.8986 34.7921 9.45472Z" fill="white"/>
</g>
<g clip-path="url(#clip4)">
<path d="M82.8151 8.70048C79.424 8.70048 76.6651 5.9416 76.6651 2.5505C76.6651 2.02771 76.2414 1.604 75.7186 1.604H70.6494C70.1269 1.604 69.703 2.02771 69.703 2.5505V23.3334C69.703 25.3269 68.0809 26.9488 66.0873 26.9488C64.0938 26.9488 62.4719 25.3269 62.4719 23.3334C62.4719 21.3396 64.0938 19.7177 66.0873 19.7177C66.6101 19.7177 67.0338 19.294 67.0338 18.7713V13.7021C67.0338 13.1796 66.6101 12.7556 66.0873 12.7556C60.2548 12.7556 55.5098 17.5009 55.5098 23.3334C55.5098 29.1659 60.2548 33.9109 66.0873 33.9109C71.9198 33.9109 76.6651 29.1659 76.6651 23.3334V14.1339C78.5487 15.1383 80.645 15.6626 82.8151 15.6626C83.3379 15.6626 83.7616 15.2389 83.7616 14.7161V9.64697C83.7616 9.12443 83.3379 8.70048 82.8151 8.70048Z" fill="white"/>
</g>
<rect x="277" y="18.4604" width="26.163" height="26.163" rx="5" transform="rotate(-44.878 277 18.4604)" fill="white"/>
<circle cx="295.532" cy="18.5322" r="5.45063" fill="#984F97"/>
<defs>
<clipPath id="clip0">
<rect width="33.5495" height="33.5495" fill="white" transform="translate(223.96 0.361328)"/>
</clipPath>
<clipPath id="clip1">
<rect width="33.5495" height="33.5495" fill="white" transform="translate(164.258 0.361328)"/>
</clipPath>
<clipPath id="clip2">
<rect width="31.0644" height="31.0644" fill="white" transform="translate(104.495 1.604)"/>
</clipPath>
<clipPath id="clip3">
<rect width="34.7921" height="34.7921" fill="white" transform="translate(0 2.84644)"/>
</clipPath>
<clipPath id="clip4">
<rect width="32.3069" height="32.3069" fill="white" transform="translate(53.4902 1.604)"/>
</clipPath>
</defs>
</svg>
