<svg width="35" height="34" viewBox="0 0 35 34" fill="none" xmlns="http://www.w3.org/2000/svg">
<g clip-path="url(#clip0)">
<path d="M32.6637 2.20682C31.4333 0.976569 29.952 0.361328 28.2188 0.361328H7.25045C5.5178 0.361328 4.03601 0.976569 2.80545 2.20682C1.5752 3.4373 0.959961 4.9191 0.959961 6.65182V27.6205C0.959961 29.3533 1.5752 30.8349 2.80545 32.0652C4.03593 33.2957 5.5178 33.9109 7.25045 33.9109H12.1431C12.4632 33.9109 12.7036 33.8999 12.8637 33.8785C13.0238 33.8564 13.1838 33.7617 13.3441 33.5941C13.5045 33.4268 13.5843 33.1828 13.5843 32.8626C13.5843 32.8191 13.5805 32.3235 13.5733 31.3771C13.5659 30.4304 13.5623 29.6806 13.5623 29.1271L13.0599 29.2146C12.7396 29.2727 12.3355 29.2984 11.8476 29.291C11.36 29.2837 10.8538 29.2329 10.3297 29.1382C9.80529 29.0434 9.31765 28.825 8.86621 28.4831C8.41499 28.1406 8.09467 27.693 7.90532 27.1398L7.68683 26.6371C7.54124 26.3026 7.31204 25.9311 6.99891 25.5237C6.68578 25.1158 6.36913 24.8391 6.04882 24.6935L5.89588 24.5842C5.79406 24.5115 5.69942 24.4237 5.61198 24.3219C5.52469 24.2198 5.4592 24.1177 5.41552 24.0161C5.37184 23.914 5.4081 23.8302 5.52469 23.7645C5.64128 23.6991 5.8522 23.6666 6.15814 23.6666L6.59482 23.7321C6.88615 23.7902 7.24632 23.9648 7.67612 24.2562C8.10561 24.5473 8.45867 24.9259 8.73539 25.3917C9.07047 25.9889 9.47418 26.4436 9.94766 26.7568C10.4208 27.0702 10.8978 27.2267 11.3782 27.2267C11.8586 27.2267 12.2736 27.1903 12.6232 27.1178C12.9725 27.0448 13.3001 26.9353 13.6061 26.7897C13.7371 25.8142 14.0939 25.0639 14.6762 24.5398C13.8463 24.4523 13.1001 24.3214 12.4373 24.1465C11.7749 23.9717 11.0905 23.6879 10.3843 23.2946C9.67791 22.9014 9.09189 22.4139 8.62591 21.8311C8.16 21.2483 7.77764 20.4839 7.47935 19.5377C7.18091 18.5909 7.03165 17.4987 7.03165 16.2611C7.03165 14.4993 7.60704 12.9992 8.75734 11.7616C8.21845 10.4366 8.26933 8.95151 8.91012 7.30593C9.33242 7.1748 9.95868 7.27318 10.7886 7.60085C11.6186 7.92874 12.2264 8.20913 12.6124 8.44177C12.9985 8.6745 13.3078 8.87126 13.5408 9.03161C14.8953 8.653 16.2931 8.46373 17.7346 8.46373C19.176 8.46373 20.574 8.653 21.9286 9.03161L22.7585 8.50741C23.3267 8.15779 23.9964 7.83747 24.7682 7.54638C25.54 7.2552 26.1296 7.17503 26.5375 7.30616C27.1925 8.95174 27.2511 10.4368 26.7119 11.7618C27.8622 12.9995 28.4377 14.4995 28.4377 16.2613C28.4377 17.4992 28.2884 18.5951 27.99 19.5486C27.6918 20.5024 27.3061 21.2671 26.8325 21.8423C26.3594 22.4175 25.7696 22.9013 25.0634 23.2948C24.3572 23.6878 23.6728 23.972 23.0101 24.1464C22.3475 24.3213 21.6013 24.4527 20.7714 24.5402C21.5281 25.1952 21.9066 26.2287 21.9066 27.6415V32.8619C21.9066 33.1095 21.9427 33.3096 22.0155 33.4625C22.0888 33.6154 22.2051 33.7206 22.3652 33.7793C22.526 33.8375 22.6673 33.8738 22.7914 33.8883C22.9155 33.9029 23.0935 33.9102 23.3266 33.9102H28.2192C29.9518 33.9102 31.4337 33.295 32.6637 32.0645C33.8941 30.834 34.5094 29.3521 34.5094 27.6195V6.65182C34.5092 4.9191 33.894 3.43707 32.6637 2.20682Z" fill="white"/>
</g>
<defs>
<clipPath id="clip0">
<rect width="33.5495" height="33.5495" fill="white" transform="translate(0.959961 0.361328)"/>
</clipPath>
</defs>
</svg>
