<svg width="32" height="32" viewBox="0 0 32 32" fill="none" xmlns="http://www.w3.org/2000/svg">
<g clip-path="url(#clip0)">
<path d="M28.453 0.604004H3.60155C1.89301 0.604004 0.495117 2.0019 0.495117 3.71044V28.5619C0.495117 30.2705 1.89301 31.6684 3.60155 31.6684H28.453C30.1616 31.6684 31.5595 30.2705 31.5595 28.5619V3.71044C31.5595 2.0019 30.1616 0.604004 28.453 0.604004ZM9.81442 27.0087H5.15477V13.0297H9.81442V27.0087ZM7.4846 10.3893C5.93138 10.3893 4.68881 9.1467 4.68881 7.59348C4.68881 6.04027 5.93138 4.79769 7.4846 4.79769C9.03781 4.79769 10.2804 6.04027 10.2804 7.59348C10.2804 9.1467 9.03781 10.3893 7.4846 10.3893ZM26.8998 27.0087H22.2402V18.7767C22.2402 17.5341 21.1529 16.4468 19.9103 16.4468C18.6678 16.4468 17.5805 17.5341 17.5805 18.7767V27.0087H12.9209V13.0297H17.5805V14.8936C18.3571 13.651 20.0657 12.7191 21.4636 12.7191C24.4147 12.7191 26.8998 15.2043 26.8998 18.1554V27.0087Z" fill="white"/>
</g>
<defs>
<clipPath id="clip0">
<rect width="31.0644" height="31.0644" fill="white" transform="translate(0.495117 0.604004)"/>
</clipPath>
</defs>
</svg>
