<svg width="33" height="33" viewBox="0 0 33 33" fill="none" xmlns="http://www.w3.org/2000/svg">
<g clip-path="url(#clip0)">
<path d="M29.8151 7.70048C26.424 7.70048 23.6651 4.9416 23.6651 1.5505C23.6651 1.02771 23.2414 0.604004 22.7186 0.604004H17.6494C17.1269 0.604004 16.703 1.02771 16.703 1.5505V22.3334C16.703 24.3269 15.0809 25.9488 13.0873 25.9488C11.0938 25.9488 9.47191 24.3269 9.47191 22.3334C9.47191 20.3396 11.0938 18.7177 13.0873 18.7177C13.6101 18.7177 14.0338 18.294 14.0338 17.7713V12.7021C14.0338 12.1796 13.6101 11.7556 13.0873 11.7556C7.2548 11.7556 2.50977 16.5009 2.50977 22.3334C2.50977 28.1659 7.2548 32.9109 13.0873 32.9109C18.9198 32.9109 23.6651 28.1659 23.6651 22.3334V13.1339C25.5487 14.1383 27.645 14.6626 29.8151 14.6626C30.3379 14.6626 30.7616 14.2389 30.7616 13.7161V8.64697C30.7616 8.12443 30.3379 7.70048 29.8151 7.70048Z" fill="white"/>
</g>
<defs>
<clipPath id="clip0">
<rect width="32.3069" height="32.3069" fill="white" transform="translate(0.490234 0.604004)"/>
</clipPath>
</defs>
</svg>
