<svg width="35" height="36" viewBox="0 0 35 36" fill="none" xmlns="http://www.w3.org/2000/svg">
<g clip-path="url(#clip0)">
<path d="M34.7921 7.45472C33.4982 8.02226 32.1196 8.39845 30.6823 8.58111C32.1609 7.69826 33.2895 6.31093 33.8201 4.63873C32.4414 5.4607 30.9193 6.04129 29.2971 6.36529C27.9881 4.97143 26.1223 4.10815 24.087 4.10815C20.1381 4.10815 16.959 7.31337 16.959 11.2427C16.959 11.8081 17.0068 12.3517 17.1242 12.8692C11.1944 12.58 5.94727 9.73795 2.4224 5.40851C1.80701 6.47619 1.44605 7.69826 1.44605 9.01384C1.44605 11.4841 2.71813 13.6738 4.6143 14.9415C3.46834 14.9198 2.34412 14.5871 1.39168 14.063C1.39168 14.0848 1.39168 14.1131 1.39168 14.1413C1.39168 17.6075 3.8641 20.4865 7.10628 21.1497C6.52569 21.3085 5.89291 21.3846 5.23621 21.3846C4.77956 21.3846 4.31857 21.3585 3.88584 21.2628C4.81 24.0875 7.43246 26.1642 10.5507 26.2316C8.12395 28.1299 5.04268 29.2737 1.70699 29.2737C1.12204 29.2737 0.561022 29.2476 0 29.1758C3.15956 31.2134 6.90405 32.3767 10.9421 32.3767C24.0674 32.3767 31.2433 21.5042 31.2433 12.0799C31.2433 11.7646 31.2324 11.4602 31.2172 11.1579C32.6328 10.1533 33.8223 8.89859 34.7921 7.45472Z" fill="white"/>
</g>
<defs>
<clipPath id="clip0">
<rect width="34.7921" height="34.7921" fill="white" transform="translate(0 0.846436)"/>
</clipPath>
</defs>
</svg>
